<?xml version="1.0" standalone="no"?><!DOCTYPE svg PUBLIC "-//W3C//DTD SVG 1.1//EN" "http://www.w3.org/Graphics/SVG/1.1/DTD/svg11.dtd"><svg t="1609421434545" class="icon" viewBox="0 0 1024 1024" version="1.1" xmlns="http://www.w3.org/2000/svg" p-id="1694" xmlns:xlink="http://www.w3.org/1999/xlink" width="200" height="200"><defs><style type="text/css"></style></defs><path d="M682.666667 42.666667 170.666667 42.666667C123.733333 42.666667 85.333333 81.066667 85.333333 128l0 597.333333 85.333333 0L170.666667 128l512 0L682.666667 42.666667zM810.666667 213.333333 341.333333 213.333333C294.4 213.333333 256 251.733333 256 298.666667l0 597.333333c0 46.933333 38.4 85.333333 85.333333 85.333333l469.333333 0c46.933333 0 85.333333-38.4 85.333333-85.333333L896 298.666667C896 251.733333 857.6 213.333333 810.666667 213.333333zM810.666667 896 341.333333 896 341.333333 298.666667l469.333333 0L810.666667 896z" p-id="1695"></path></svg>