<?xml version="1.0" standalone="no"?><!DOCTYPE svg PUBLIC "-//W3C//DTD SVG 1.1//EN" "http://www.w3.org/Graphics/SVG/1.1/DTD/svg11.dtd"><svg t="1609572576863" class="icon" viewBox="0 0 1024 1024" version="1.1" xmlns="http://www.w3.org/2000/svg" p-id="2081" xmlns:xlink="http://www.w3.org/1999/xlink" width="200" height="200"><defs><style type="text/css"></style></defs><path d="M469.333333 725.333333l85.333333 0 0-256-85.333333 0L469.333333 725.333333zM512 85.333333C277.333333 85.333333 85.333333 277.333333 85.333333 512s192 426.666667 426.666667 426.666667c234.666667 0 426.666667-192 426.666667-426.666667S746.666667 85.333333 512 85.333333zM512 853.333333c-187.733333 0-341.333333-153.6-341.333333-341.333333s153.6-341.333333 341.333333-341.333333c187.733333 0 341.333333 153.6 341.333333 341.333333S699.733333 853.333333 512 853.333333zM469.333333 384l85.333333 0L554.666667 298.666667l-85.333333 0L469.333333 384z" p-id="2082"></path></svg>